<?xml version="1.0" encoding="UTF-8" standalone="no"?>
<svg
   width="512"
   height="512"
   viewBox="0 0 512 512"
   fill="none"
   version="1.1"
   id="svg1"
   sodipodi:docname="icon.svg"
   inkscape:export-filename="../python/del-co-water-usage/brand/icon.png"
   inkscape:export-xdpi="48"
   inkscape:export-ydpi="48"
   inkscape:version="1.4.3 (0d15f750, 2025-12-25)"
   xmlns:inkscape="http://www.inkscape.org/namespaces/inkscape"
   xmlns:sodipodi="http://sodipodi.sourceforge.net/DTD/sodipodi-0.dtd"
   xmlns="http://www.w3.org/2000/svg"
   xmlns:svg="http://www.w3.org/2000/svg">
  <g
     id="g2">
    <path
       style="display:inline;fill:#5a84b8;stroke-width:7.01972"
       d="m 266.08067,484.91328 c -1.1261,-0.80499 -3.89524,-4.26828 -6.15356,-7.6962 -4.22889,-6.4191 -8.7762,-9.93718 -14.33933,-11.09382 -4.97516,-1.03441 -10.40962,-8.24753 -11.56113,-15.34483 -1.33804,-8.24763 -1.07353,-7.87993 -5.19516,-7.22085 -5.99801,0.95912 -11.26575,3.74978 -16.867,8.93552 -3.99163,3.69554 -6.32737,5.10621 -9.8566,5.95285 -6.22629,1.49366 -12.33928,0.77094 -17.84948,-2.11026 -5.917,-3.09393 -22.23,-9.09947 -24.02052,-9.56754 -12.36475,-3.23241 -21.24765,-4.55905 -29.26271,-5.73567 l -4.61659,-0.65888 c -2.5391,-0.36236 -7.84959,-0.69067 -11.80113,-0.72946 -9.7226,-0.0955 -13.38859,-1.28754 -18.41281,-5.98708 -4.129144,-3.86233 -6.494021,-8.15315 -10.345393,-18.77048 -1.900659,-5.23967 -6.227124,-9.95955 -9.940701,-10.84455 -3.151299,-0.75101 -5.514206,-2.69773 -7.176753,-5.91275 l -1.237161,-2.39239 -4.517964,1.71671 c -6.842126,2.5998 -12.994564,2.26446 -19.671793,-1.07221 -5.486413,-2.74157 -7.139554,-2.90501 -12.446746,-1.23058 l -2.02463,0.63879 0.484364,-26.37442 c 0.266041,-14.50593 1.105187,-89.41309 1.864152,-166.46035 0.889401,-90.28865 1.697094,-140.281927 2.272081,-140.637305 1.871877,-1.156884 115.059044,-3.933014 131.894594,-3.234968 13.01042,0.53947 19.46709,1.905453 25.97922,5.496308 2.25839,1.245327 8.95584,4.671631 14.88308,7.614013 5.92732,2.942372 12.74052,6.992766 15.1405,9.000863 5.79351,4.84746 7.94379,4.765876 12.83556,-0.487035 l 3.85362,-4.138126 5.74227,2.687129 c 3.79684,1.776756 6.62003,3.858828 8.33312,6.145598 4.84916,6.472905 9.92049,10.846041 14.31357,12.342922 7.29139,2.484441 11.93831,1.916568 28.27812,-3.455702 22.62886,-7.439998 25.43317,-7.897337 44.05657,-7.184929 15.65237,0.598708 15.84597,0.583058 20.20663,-1.640641 2.42152,-1.234856 9.35112,-6.467947 15.3991,-11.629101 8.58421,-7.32551 13.31206,-10.574331 21.55372,-14.810931 21.08732,-10.839853 42.55504,-19.489132 67.57397,-27.225377 9.63801,-2.980205 18.02876,-5.587432 18.64615,-5.793842 0.89291,-0.298551 1.12259,17.341253 1.12259,86.214644 v 86.58995 l -4.94946,1.5602 c -2.72226,0.8581 -5.75246,2.3082 -6.73375,3.22241 -1.70719,1.59047 -1.72005,1.80612 -0.29763,4.99672 1.7272,3.8751 3.27884,20.36767 2.73256,29.04449 -0.27096,4.30704 -1.01646,7.0377 -2.69628,9.87881 -4.92187,8.32418 -6.70868,12.1786 -7.80797,16.84315 -0.62615,2.65874 -4.27044,13.97445 -8.09753,25.14603 -4.50329,13.14552 -7.30087,22.88376 -7.92913,27.60125 -0.5342,4.00909 -1.4349,8.30789 -2.00216,9.55288 -1.02067,2.24009 -14.70604,14.31146 -24.69736,21.78465 -5.29568,3.96102 -22.70663,14.7617 -25.59918,15.8802 -1.0849,0.4195 -2.68084,-0.22814 -4.89177,-1.98516 -6.71711,-5.33809 -8.88704,-4.63057 -15.3044,4.99 -3.32553,4.98549 -4.9461,6.65367 -6.48328,6.67368 -5.91243,0.077 -11.97459,5.36483 -13.71935,11.96698 -0.54894,2.07678 -2.22778,6.29442 -3.73105,9.37252 l -2.73327,5.59654 1.804,7.18339 1.80392,7.18338 -6.85265,4.3556 c -3.76903,2.39558 -7.3837,4.66602 -8.0326,5.04541 -0.92007,0.53793 -1.0524,0.0106 -0.60089,-2.39666 0.89109,-4.74986 -1.40493,-9.16024 -6.4267,-12.34493 -2.34754,-1.48877 -4.89633,-2.70393 -5.66408,-2.70037 -1.44852,0.007 -11.49368,14.82428 -15.65257,23.08904 -2.6986,5.36281 -2.85928,7.94029 -1.07725,17.28455 1.89728,9.94889 0.24077,13.08555 -7.82307,14.81433 -2.9028,0.6223 -4.23409,3.36191 -4.23409,8.71319 0,3.95937 -1.91518,7.91772 -4.66032,9.63208 -1.46439,0.91454 -8.97051,2.79384 -20.48573,5.12901 -1.30434,0.26449 -3.10322,-0.15802 -4.29271,-1.00833 z m 9.41766,-217.37849 c 7.93405,-3.85397 15.59735,-15.34971 17.33024,-25.99715 1.32166,-8.12048 -0.18674,-15.49896 -5.3211,-26.02326 -6.39012,-13.09899 -25.61203,-45.76228 -27.09228,-46.03703 -1.25175,-0.23235 -12.41944,24.70167 -18.67085,41.68642 -9.36101,25.43323 -6.17778,49.50643 7.48963,56.64022 6.62318,3.45701 18.85132,3.33169 26.26436,-0.2692 z M 244.89522,230.0295 c -0.46331,-1.84608 7.66258,-35.16702 8.87075,-36.37519 1.74637,-1.74635 -1.33732,16.07008 -5.99857,34.65761 -1.06854,4.2611 -2.08176,4.86699 -2.87218,1.71758 z"
       id="path3"
       sodipodi:nodetypes="ssssssssscsssssscsssccssssssscssssssssssscsssssssssssssssscccsssssssssssssssssssssssss" />
  </g>
  <sodipodi:namedview
     id="namedview1"
     pagecolor="#ffffff"
     bordercolor="#000000"
     borderopacity="0.25"
     inkscape:showpageshadow="2"
     inkscape:pageopacity="0.0"
     inkscape:pagecheckerboard="true"
     inkscape:deskcolor="#d1d1d1"
     inkscape:zoom="0.80162723"
     inkscape:cx="106.03432"
     inkscape:cy="202.08894"
     inkscape:window-width="1920"
     inkscape:window-height="1027"
     inkscape:window-x="0"
     inkscape:window-y="25"
     inkscape:window-maximized="1"
     inkscape:current-layer="svg1" />
  <defs
     id="defs1" />
</svg>
